<?xml version="1.0" encoding="utf-8"?>
<!-- Generator: Adobe Illustrator 24.0.0, SVG Export Plug-In . SVG Version: 6.00 Build 0)  -->
<svg version="1.1" id="Слой_1" xmlns="http://www.w3.org/2000/svg" xmlns:xlink="http://www.w3.org/1999/xlink" x="0px" y="0px"
	 width="55px" height="55px" viewBox="0 0 55 55" style="enable-background:new 0 0 55 55;" xml:space="preserve">
<style type="text/css">
	.st0{fill:#FFFFFF;}
</style>
<g>
	<path class="st0" d="M36.4,42.9c-0.8,1.8-0.4,3.6,0,5.3c0.3,1.3,1.2,2.4,2.3,3.1c0.6,0.4,1.6,0.1,2.4,0.2c0.4,0,0.8,0.1,1,0.3
		c0.8,0.6,0.6,1.6-0.3,1.9c-0.3,0.1-0.7,0.1-1.1,0.1c-9,0-18.1,0-27.1,0c-0.3,0-0.6,0-0.9-0.1c-0.6-0.2-1.1-0.6-0.8-1.2
		c0.2-0.4,0.7-0.8,1.1-1c0.4-0.2,0.9-0.1,1.3,0c1.6,0.3,2.5-0.8,3.1-2c1.1-2,1.6-4.2,0.7-6.6c-1.1,0-2.3,0-3.5,0
		c-3.4,0-6.8-0.1-10.2,0c-2,0.1-3.5-1.7-3.5-3.5c0-6.5,0-13,0-19.6c0-1.7,0.2-3.5,0.1-5.2c0-3.3,0-6.5-0.2-9.8C0.7,3,2.1,1,4.6,1.1
		c3.1,0.1,6.1,0.1,9.2,0.1c1.6,0,3.2,0,4.8,0c10.5,0,21,0,31.5,0c1.9,0,3.4,1.7,3.4,3.4c0,11.6,0,23.3,0,34.9c0,1.7-1.5,3.5-3.4,3.4
		C45.5,42.8,40.9,42.9,36.4,42.9z M27.2,40.6c7.5,0,15,0,22.5,0c1.3,0,1.5-0.2,1.5-1.5c0-11.3,0-22.5,0-33.8c0-1.6-0.2-1.8-1.8-1.8
		c-9.7,0-19.4,0-29.2,0c-2.1,0-4.2-0.1-6.2-0.1c-1.6,0-3.2,0.1-4.8,0.1c-1.6,0-3.2,0-4.8,0c-0.6,0-1.1,0.2-1.1,0.9
		c-0.1,2.7-0.1,5.4-0.1,8.1c0,1.7,0.1,3.4,0.1,5.2c0,7.1,0,14.1,0,21.2c0,1.4,0.5,1.8,1.7,1.7C12.3,40.6,19.7,40.6,27.2,40.6z
		 M18.9,51.4c5.5,0,10.9,0,16.2,0c-0.5-1.4-1.1-2.7-1.3-4c-0.2-1.4-0.1-2.9-0.1-4.4c-4.5,0-8.8,0-13.2,0
		C20.9,45.6,20.9,48.3,18.9,51.4z"/>
	<path class="st0" d="M33.7,29.3c-0.4,1.1-0.7,2-1,2.9C32.4,32.7,32,33,31.5,33c-1.4,0-2.9,0-4.3,0c-0.7,0-1.1-0.4-1.2-1.1
		c-0.1-0.5,0.6-1.1,1.3-1.1c1.1,0,2.3,0,3.5,0c0.6-1.9,1.2-3.8,1.8-5.7c0.2-0.4,0.7-0.9,1.2-1c0.3-0.1,0.8,0.4,1,0.8
		c0.4,1,0.8,2.1,1.1,3.2c0.3,1.1,0.7,2.3,1,3.4c0.4-1.6,0.8-3,1.2-4.5c0.3-1.3,0.5-2.6,0.8-3.9c0.1-0.5,0.2-1.1,0.4-1.6
		c0.2-0.3,0.7-0.6,1-0.6c0.4,0,1,0.4,1,0.7c0.5,1.7,0.8,3.5,1.2,5.2c0.3,1.3,0.6,2.6,0.9,3.9c1.1,0,2.2,0,3.3,0
		c0.7,0,1.2,0.3,1.2,1.1c0,0.8-0.4,1.2-1.1,1.2c-1.5,0-2.9,0-4.4,0c-1.3,0-1.1-1.2-1.4-2c-0.4-1-0.5-2.1-0.7-3.2c-0.1,0-0.2,0-0.2,0
		c-0.4,1.6-0.7,3.3-1.1,4.9c-0.3,1.2-0.7,2.5-0.9,3.7c-0.1,0.7-0.5,0.8-1.1,0.8c-0.7,0-1-0.3-1.2-0.9C35.1,34.1,34.4,31.8,33.7,29.3
		z"/>
	<path class="st0" d="M16.2,9.9c0.8,0,1.4,0,2,0c0.8,0,1.3,0.6,1.4,1.4c0,1.4,0,2.7,0,4.1c0,0.8-0.4,1.2-1.2,1.2c-0.7,0-1.4,0-2.2,0
		c0,0.7,0,1.3,0,2c0,1.1-0.4,1.4-1.4,1.4c-1.2,0-2.5,0-3.7,0c-1,0-1.5-0.5-1.5-1.5c0-0.5,0-1.1,0-1.6c0-0.1,0-0.1-0.1-0.2
		c-0.6,0-1.3,0-1.9,0c-0.8,0-1.1-0.5-1.1-1.1c0-1.5,0.1-3.1,0.1-4.6c0-0.7,0.7-1.1,1.5-0.9c1.3,0.3,1.5,0.2,1.5-1.1
		c0-0.2,0-0.3,0.1-0.5c0.4-1.7,0.4-1.7,2.2-1.7c1.1,0,2.2,0,3.3,0c0.8,0,1.1,0.4,1.1,1.1C16.3,8.5,16.2,9.1,16.2,9.9z M14,17.7
		c0-0.7,0-1.4,0-2.1c0-0.8,0.4-1.3,1.2-1.2c0.7,0,1.4,0,2.1,0c0-0.8,0-1.4,0-2.1c-0.7,0-1.2,0-1.8,0c-1.1-0.1-1.5-0.4-1.5-1.6
		c0-0.6,0-1.1,0-1.7c-0.5,0-0.9,0-1.3,0c-0.6-0.1-0.9,0.2-0.9,0.8c0.1,2.4,0,2.5-2.5,2.5c-0.2,0-0.3,0-0.6,0c0,0.7,0,1.3,0,2.1
		c0.6,0,1.1,0,1.6,0c1.3,0,1.5,0.2,1.5,1.5c0,0.6,0,1.2,0,1.8C12.7,17.7,13.3,17.7,14,17.7z"/>
	<path class="st0" d="M35.4,16.6c3.7,0,7.4,0,11.2,0c1,0,1.3,0.3,1.3,1.1c0,0.7-0.4,1.1-1.4,1.1c-7.5,0-15,0-22.4,0
		c-0.8,0-1.2-0.3-1.4-1.1c-0.1-0.7,0.4-1.2,1.2-1.2C27.8,16.6,31.6,16.6,35.4,16.6z"/>
	<path class="st0" d="M35.3,14.4c-3.7,0-7.5,0-11.2,0c-0.8,0-1.3-0.2-1.3-1c-0.1-0.7,0.5-1.2,1.3-1.2c7.5,0,15.1,0,22.6,0
		c0.8,0,1.2,0.4,1.2,1.1c0,0.8-0.4,1.1-1.2,1.1C42.9,14.3,39.1,14.4,35.3,14.4z"/>
	<path class="st0" d="M14.6,26.3c2.2,0,4.5,0,6.7,0c0.9,0,1.6,0.5,1.6,1.2c0.1,0.7-0.6,1.2-1.6,1.2c-3,0-6,0-8.9,0
		c-1.4,0-2.9,0-4.3,0c-0.3,0-0.7,0-1-0.1c-0.5-0.2-1-0.7-0.7-1.2c0.2-0.4,0.8-1,1.2-1C10,26.2,12.3,26.3,14.6,26.3z"/>
	<path class="st0" d="M14.6,21.9c2.1,0,4.2,0,6.3,0c0.2,0,0.3,0,0.5,0c0.8,0,1.6,0.6,1.5,1.2c-0.1,0.8-0.7,1.2-1.5,1.2
		c-2.3,0-4.5,0-6.8,0c-2.1,0-4.2,0-6.2,0c-0.3,0-0.6,0-0.8,0c-0.7-0.1-1.3-0.4-1.2-1.3C6.4,22.3,7,22,7.7,21.9
		C10,21.9,12.3,21.9,14.6,21.9C14.6,21.9,14.6,21.9,14.6,21.9z"/>
	<path class="st0" d="M31.6,10.1c-2.5,0-5,0-7.4,0c-0.4,0-1-0.3-1.2-0.7c-0.2-0.3,0-0.8,0.2-1.2c0.1-0.2,0.5-0.3,0.7-0.3
		c5.1,0,10.2,0,15.3,0c0.8,0,1.1,0.4,1.1,1.2c0,0.8-0.5,1.1-1.2,1.1C36.6,10.1,34.1,10.1,31.6,10.1z"/>
	<path class="st0" d="M14.7,30.8c2.3,0,4.6,0,6.9,0c0.7,0,1.4,0.5,1.3,1.1c-0.1,0.7-0.6,1.1-1.3,1.1c-4.7,0-9.4,0-14.1,0
		c-0.8,0-1.2-0.4-1.2-1.2c0-0.7,0.5-1,1.2-1C10,30.8,12.3,30.8,14.7,30.8z"/>
	<path class="st0" d="M17.4,37.3c-1.5,0-2.9,0-4.4,0c-0.7,0-1.2-0.3-1.2-1c0-0.7,0.5-1.2,1.2-1.2c2.8,0,5.7,0,8.5,0
		c0.7,0,1.4,0.7,1.4,1.2c-0.1,0.7-0.6,1-1.4,1C20.2,37.3,18.8,37.3,17.4,37.3z"/>
</g>
</svg>
