<?xml version="1.0" encoding="utf-8"?>
<!-- Generator: Adobe Illustrator 24.0.0, SVG Export Plug-In . SVG Version: 6.00 Build 0)  -->
<svg version="1.1" id="Слой_1" xmlns="http://www.w3.org/2000/svg" xmlns:xlink="http://www.w3.org/1999/xlink" x="0px" y="0px"
	 width="57px" height="55px" viewBox="0 0 57 55" style="enable-background:new 0 0 57 55;" xml:space="preserve">
<style type="text/css">
	.st0{fill:#FFFFFF;}
</style>
<g>
	<path class="st0" d="M0.8,2c0-0.8,0.5-1.3,1.2-1.3c0.1,0,0.2,0,0.3,0c11.9,0,23.7,0,35.6,0c1,0,1.5,0.6,1.5,1.5c0,0.9,0,1.9,0,2.8
		c0.1,0,0.3,0,0.4,0c3.2,0,6.4,0,9.5,0c0.7,0,1.5,0.5,1.5,1.5c0,0.5-0.1,0.9-0.1,1.4c0,0.4,0.1,0.8,0.1,1.2c0,8.3,0,16.7,0,25
		c0,0.2,0,0.3,0.2,0.5c0.8,0.8,1.5,1.7,1.9,2.8c0.2,0.6,0.5,1.3,0.7,1.9c0.2,0.8,0.3,1.6,0.4,2.5c0,0.7-0.2,1.5-0.3,2.2
		c-0.1,0.5-0.2,1.1-0.5,1.6c-0.3,0.7-0.7,1.3-1,2c0.2,0.3,0.5,0.7,0.2,1.2c-0.1,0.2-0.1,0.3,0.1,0.5c0.9,0.9,1.8,1.8,2.7,2.7
		c0.4,0.4,0.4,1.3,0,1.7c-0.5,0.4-1.1,0.5-1.7,0c-0.7-0.7-1.4-1.4-2.2-2.1c-0.1-0.1-0.2-0.3-0.3-0.4c-0.3-0.3-0.5-0.6-1-0.2
		c-0.3,0.2-0.7,0-1-0.3c-0.2-0.2-0.3-0.2-0.4-0.1c-0.6,0.3-1.3,0.6-1.9,0.8c-0.5,0.2-1.1,0.3-1.6,0.3c-0.8,0-1.7,0-2.5,0
		c-0.4,0-0.9-0.1-1.3-0.2c-1.1-0.4-2.2-0.8-3.2-1.6c-1-0.7-1.8-1.6-2.5-2.6c-0.5-0.8-0.9-1.6-1.2-2.4c-0.1-0.2-0.2-0.3-0.4-0.3
		c-7.4,0-14.7,0-22.1,0c-1.2,0-2.4,0-3.7,0c-0.9,0-1.4-0.6-1.4-1.4c0-2.8,0-5.7,0-8.5c0-0.1,0-0.3,0-0.5c-0.1,0-0.3,0-0.4,0
		c-1.4,0-2.9,0-4.3,0c-0.5,0-1.1-0.5-1.1-1C0.8,32.2,0.8,11.1,0.8,2z M9.1,13.4c0,9.6,0,19.1,0,28.6c8.2,0,16.4,0,24.5,0
		c0.1-0.9,0.2-1.8,0.4-2.7c0.2-0.8,0.5-1.7,0.9-2.4c0.4-0.7,0.9-1.4,1.5-2.1c0.5-0.6,1.1-1.1,1.7-1.5c0.8-0.6,1.7-1.1,2.8-1.4
		c0.5-0.1,1.1-0.3,1.6-0.4c0.4,0,0.5-0.1,0.5-0.5c0-5.1,0-10.2,0-15.4c0-0.8,0-1.5,0-2.3C31.6,13.4,20.4,13.4,9.1,13.4z M15.4,11
		c1.6,0,3.2,0,4.8,0c0.3,0,0.3-0.1,0.3-0.3c0-0.7,0-1.3,0.1-2c0-0.4,0-0.7,0.2-1.1c0.2-0.6,0.9-0.9,1.4-0.7c0.6,0.2,0.8,0.7,0.9,1.2
		c0.3,1,0.5,1.9,0.7,2.9c0.2,0,0.3,0,0.5,0c4.1,0,8.2,0,12.3,0c0.3,0,0.3-0.1,0.3-0.3c0-2.4,0-4.8,0-7.1c0-0.1,0-0.2,0-0.3
		c-11.3,0-22.5,0-33.7,0c0,1.7,0,3.5,0,5.2c0,1.7,0,3.5,0,5.2c0,1.7,0,3.5,0,5.2c0,1.7,0,3.5,0,5.2c0,1.7,0,5.4,0,5.7
		c0,0.7,0,1.3,0,2c1.2,0,2.3,0,3.4,0c0-0.7,0-1.4,0-2c0-0.7,0-4.7,0-5c0-4.2,0-8.3,0-12.5c0-0.1,0-0.3,0-0.4C6.9,11.4,7.2,11,8,11
		c1.2,0,2.3,0,3.5,0c0.4,0,0.5-0.2,0.5-0.5c0-0.2,0-0.3,0-0.5c0.1-0.8,0.1-1.6,0.2-2.3c0.1-0.4,0.6-0.8,1-0.8c0.4,0,1.1,0.3,1.2,0.7
		C14.6,8,14.7,8.5,14.8,9C15,9.6,15.2,10.3,15.4,11z M43.8,49.2c4.3,0.1,7.7-3.5,7.7-7.6c0-4.3-3.4-7.7-7.8-7.7
		c-4.3,0.1-7.3,3.5-7.5,7C35.8,45.8,39.6,49.4,43.8,49.2z M48.4,32.5c0-8.3,0-16.7,0-25c-3,0-6,0-9,0c0,1.2,0,2.3,0,3.5
		c1.5,0,3,0,4.4,0c0.5,0,0.9,0.2,1.1,0.6c0.1,0.3,0.2,0.7,0.2,1c0,6.1,0,12.2,0,18.3c0,0.2,0,0.3,0,0.5
		C46.3,31.9,47.3,32.2,48.4,32.5z"/>
	<path class="st0" d="M20.9,26.5c-0.3,0.4-0.6,0.9-0.9,1.3c-0.2,0.3-0.6,0.5-0.9,0.5c-1.8,0-3.5,0-5.3,0c-0.6,0-1.2-0.5-1.3-1.1
		c-0.1-0.4,0.1-0.8,0.4-1c0.3-0.2,0.7-0.4,1.1-0.4c1.4,0,2.7,0,4.1,0c0.2,0,0.4-0.1,0.5-0.3c0.5-0.9,1.1-1.7,1.6-2.6
		c0.4-0.6,0.9-1,1.6-0.7c0.5,0.2,0.8,0.6,0.9,1.1c0.1,0.7,0.3,1.3,0.4,2c0.1,0.4,0.1,0.8,0.3,1.1c0.2-0.9,0.5-1.8,0.7-2.7
		c0.3-1,0.5-1.9,0.8-2.9c0.2-0.7,0.3-1.5,0.6-2.2c0.1-0.4,0.2-0.8,0.5-1.1c0.3-0.3,0.7-0.6,1.1-0.4c0.6,0.2,0.9,0.6,1,1.3
		c0.1,1.4,0.1,2.9,0.2,4.3c0.1,1.2,0.1,2.3,0.2,3.5c0.1,0.9,0.1,1.9,0.2,2.8c0.1,0.5,0.1,1.1,0.2,1.6c0.1-0.4,0.2-0.9,0.3-1.3
		c0.2-0.7,0.3-1.4,0.5-2c0.1-0.4,0.2-0.9,0.6-1.1c0.3-0.2,0.6-0.3,0.9-0.3c2.3,0,4.6,0,6.8,0c0.5,0,0.9,0.2,1.2,0.7
		c0.2,0.5,0.2,0.9-0.2,1.3c-0.3,0.3-0.6,0.4-1,0.4c-1.9,0-3.7,0-5.6,0c-0.1,0-0.2,0-0.4,0c-0.2,0.7-0.3,1.4-0.5,2
		c-0.2,0.9-0.4,1.8-0.7,2.8c-0.3,1.1-0.6,2.3-0.9,3.4c-0.2,0.6-0.4,1.3-0.6,1.9c-0.2,0.6-0.5,0.8-1.3,0.7c-0.4,0-0.7-0.3-0.8-0.8
		c-0.1-0.7-0.2-1.4-0.3-2c-0.1-1.1-0.2-2.2-0.4-3.3c0-0.4-0.1-0.9-0.1-1.3c-0.1-0.8-0.1-1.7-0.2-2.5c-0.1-1.1-0.2-2.1-0.3-3.3
		c-0.2,0.7-0.4,1.3-0.6,2c-0.3,1-0.5,2-0.8,3c-0.1,0.4-0.2,0.8-0.3,1.3c-0.2,0.7-0.6,1-1.4,0.9c-0.5-0.1-0.9-0.5-1-1.1
		c-0.1-0.6-0.3-1.2-0.4-1.8c-0.2-0.8-0.3-1.6-0.5-2.4C21.1,27.2,21,26.9,20.9,26.5z"/>
	<path class="st0" d="M42.6,42.8c-0.7,0-1.4,0-2.1,0c-0.7,0-1.4-0.7-1.3-1.3c0.1-0.5,0.5-1.1,1.1-1.1c0.7,0,1.5,0,2.2,0
		c0-0.7,0-1.4,0-2c0-0.7,0.4-1.2,1.1-1.3c0.4-0.1,1,0.2,1.3,0.8c0,0.1,0,0.2,0.1,0.4c0,0.7,0,1.4,0,2.1c0.7,0,1.4,0,2.1,0
		c0.6-0.1,1.2,0.7,1.2,1.2c0,0.5-0.6,1.2-1.2,1.2c-0.7,0-1.4,0-2.1,0c0,0.7,0,1.4,0,2c0,0.6-0.4,1.1-0.9,1.2c-0.5,0.1-1,0-1.3-0.5
		c-0.1-0.1-0.2-0.3-0.2-0.5C42.6,44.3,42.6,43.6,42.6,42.8z"/>
</g>
</svg>
