<?xml version="1.0" encoding="utf-8"?>
<!-- Generator: Adobe Illustrator 24.0.0, SVG Export Plug-In . SVG Version: 6.00 Build 0)  -->
<svg version="1.1" id="Слой_1" xmlns="http://www.w3.org/2000/svg" xmlns:xlink="http://www.w3.org/1999/xlink" x="0px" y="0px"
	 width="71px" height="60px" viewBox="0 0 71 60" style="enable-background:new 0 0 71 60;" xml:space="preserve">
<style type="text/css">
	.st0{fill:#FFFFFF;}
	.st1{fill:#FFFFFF;stroke:#FFFFFF;stroke-width:0.5;stroke-miterlimit:10;}
</style>
<g>
	<path class="st0" d="M30.7,30.5c-1.9,0.3-3.4,1-3.7-1.9c-0.1-0.9-2-2.2-3-2.1c-1.2,0.1-2.3,1.5-3.3,2.3c-0.9,0.8-1.8,1.6-3.1,2.8
		c-0.6-4.9,2.6-8.8,6.3-9C27.4,22.5,30.8,26.2,30.7,30.5z"/>
	<path class="st0" d="M53.2,30.5c-1.1,0-2.1,0-2.8,0c-0.8-1.5-1.2-3.6-2.2-3.9c-1.1-0.4-2.9,0.6-4.1,1.4c-1.1,0.7-1.8,2-3.1,3.5
		c-1.2-5,0.7-8.2,4.6-8.9C49.4,22,52.7,25.3,53.2,30.5z"/>
	<path class="st1" d="M65,24c-1.2-0.3-2.4-2-2.8-3.3C58.4,8.2,46.5,1.3,35.3,1c-7.8-0.2-15,2.9-20.3,8.6c-3,3.2-4.6,7.5-6.9,11.3
		c-0.7,1.2-1.7,2.4-2.9,3.1c-2.9,1.6-4.6,3.8-4,7c0.6,3.2,2.3,5.5,5.9,5.6c1,2.4,1.9,4.6,2.9,6.7c2.6,5.8,7.3,9.8,12.5,12.5
		c4.7,2.5,10.2,3.3,16,2.6c11.7-1.5,19.4-7.6,23.8-18.3c0.6-1.5,2.3-2.4,3.4-3.7c1.6-2.1,4.1-4.2,4.3-6.4C70,27.6,68.3,24.9,65,24z
		 M6.9,34.6c-1.5-1.8-3.3-2.9-3.2-4c0.1-1.5,1.5-3,2.4-4.5c0.3,0.3,0.5,0.6,0.8,0.8C6.9,29,6.9,31.1,6.9,34.6z M59.7,37.7
		c-3.6,11.1-15.1,19.7-28.9,17.2c-8.9-1.6-15.2-6.4-18.7-14.1C5.7,26.8,13,9.9,27.8,5.9c2.2-0.6,4.5-1.4,6.6-1.3
		c1.3,0.1,2.9,1.6,3.5,2.9c0.7,1.7-0.1,3.1-2.3,3.6c-0.9,0.2-1.6,1.7-2.9,3.2c6.2,0.5,8.6-2.1,9.3-8.3c4.7-0.1,8.4,2.9,11.1,5.7
		C60.1,18.9,62.8,28.1,59.7,37.7z M63.7,33.4c0-2.3,0-4.6,0-7.1C67.5,29.5,67.4,31.9,63.7,33.4z"/>
	<path class="st1" d="M41.4,42c-1.1,2.5-3.7,3.5-6.2,3.7c-2.5,0.2-5.3-1.7-6.6-4c-0.4,0.5-0.6,1-0.6,1.4c0.5,2.9,4.1,5.7,7.1,5.5
		c2.5-0.2,5.2-1.1,6.2-3.7c0.4-0.9,0.2-2,0.1-3.1C41.4,41.9,41.4,42,41.4,42z"/>
</g>
</svg>
