<?xml version="1.0" encoding="utf-8"?>
<!-- Generator: Adobe Illustrator 24.0.0, SVG Export Plug-In . SVG Version: 6.00 Build 0)  -->
<svg version="1.1" id="Слой_1" xmlns="http://www.w3.org/2000/svg" xmlns:xlink="http://www.w3.org/1999/xlink" x="0px" y="0px"
	 width="93px" height="94px" viewBox="0 0 93 94" style="enable-background:new 0 0 93 94;" xml:space="preserve">
<style type="text/css">
	.st0{fill:#C53334;}
</style>
<g>
	<path class="st0" d="M62.3,72.5c0.3-0.6,0.5-1.1,0.8-1.5c1.2-1.7,2.1-3.5,2.7-5.5c0.2-0.6,0.5-0.8,1.1-0.8c4.6,0,9.1,0.1,13.7,0
		c1.4,0,2.7-0.7,3.4-2.1c0.4-0.8,0.7-1.6,0.5-2.5c-0.1-0.5,0-1,0-1.5c0-13.6,0-27.1,0-40.7c0-1.1,0.2-2.2,0.1-3.3
		c-0.1-1.3,0.2-2.7-0.6-3.8c-0.3-0.5-0.8-1-1.3-1.2C82,9.2,81.3,9,80.7,9C57.8,9,35,9,12.2,9c-1,0-2.8,1.1-3.1,2.2
		c-0.2,0.7-0.4,1.4-0.4,2.1c0,7.9,0,15.8,0,23.7c0,0.8,0,3.4,0,4.1c0,6.7,0,13.4,0,20.1c0,1.1,1.5,3.2,2.5,3.3
		c0.9,0.1,1.8,0.3,2.7,0.3c4.4,0,8.8,0,13.2,0c0.8,2.7,2.1,5.1,3.8,7.6c-0.2,0.1-0.5,0.2-0.7,0.2c-6.5,0-13.1,0.1-19.6,0
		c-3.2-0.1-5.8-1.5-7.7-4.1c-1.4-1.8-2-3.9-2-6.2c0.1-5.1,0-41,0.1-52.1c0-1.7,0.8-3.2,1.7-4.6c0.9-1.2,1.9-2.2,3.2-2.9
		C7.2,1.8,8.5,1.2,10,1.2c11.6,0,23.3,0,34.9,0c0.5,0,0.9-0.2,1.4-0.2c0.4,0,0.8,0.2,1.2,0.2c0.6,0,1.2-0.1,1.8-0.1
		C50,1,50.8,1,51.5,1c10.6,0.1,21.2,0.1,31.8,0.2c1.6,0,3.1,0.7,4.4,1.7c1,0.7,2,1.6,2.7,2.6c0.9,1.3,1.6,2.8,1.6,4.5
		c0.1,6.9,0.1,13.9,0.2,20.8c0,10.5,0,20.9,0,31.4c0,2.9-1.1,5.4-3.2,7.4c-1.7,1.5-3.6,2.6-5.8,2.7c-2.2,0.1-4.5,0.1-6.7,0.2
		c-1.3,0-2.6,0-3.9,0c-0.9,0-1.8-0.2-2.7-0.2c-0.6,0-1.2,0.2-1.7,0.2C66.2,72.5,64.4,72.5,62.3,72.5z"/>
	<path class="st0" d="M46.4,75.7c-8.7,0.2-16.1-7.3-16-16.2c0.1-8.8,7.1-16.3,16.7-16c8.2,0.3,15.1,6.8,15.4,15.5
		C63,68.2,55.5,75.9,46.4,75.7z"/>
	<path class="st0" d="M46.4,29.1c9.4,0,18.7,0,28.1,0c1.6,0,2.5,1,2.5,2.5c0,0.9,0,1.7,0,2.6c0,1.7-1,2.7-2.7,2.7
		c-18.6,0-37.2,0-55.8,0c-1.6,0-2.6-1-2.6-2.6c0-0.9,0-1.7,0-2.6c0-1.6,1-2.6,2.6-2.6C27.9,29.1,37.1,29.1,46.4,29.1z"/>
	<path class="st0" d="M46.5,16.3c4.2,0,8.4,0,12.6,0c1.4,0,2.9,1.1,2.7,2.7c-0.1,0.8-0.1,1.6,0,2.4c0.2,1.8-1.2,2.9-2.8,2.9
		c-6.1,0-12.3,0-18.4,0c-2.2,0-4.4,0-6.6,0c-0.7,0-1.4,0-2-0.6c-0.5-0.5-0.7-1.2-0.8-1.9c-0.1-0.9-0.1-1.9,0-2.8
		c0.1-1.4,1-2.6,2.6-2.6C38.1,16.3,42.3,16.3,46.5,16.3z"/>
	<path class="st0" d="M56.8,92.7c-0.6-0.3-1.2-0.5-1.8-0.8c-1.8-0.9-3.6-1.8-5.3-2.7c-0.9-0.4-1.8-0.8-2.6-1.3
		c-0.5-0.3-0.9-0.1-1.3,0.1c-2,1-3.9,2-5.8,3c-1,0.5-2,1-3,1.5c-0.1,0.1-0.3,0.1-0.6,0.1c0-5.2,0-10.4,0-15.5
		c6.8,3.7,13.5,3.7,20.4,0C56.8,82.2,56.8,87.4,56.8,92.7z"/>
</g>
</svg>
