<?xml version="1.0" encoding="utf-8"?>
<!-- Generator: Adobe Illustrator 24.0.0, SVG Export Plug-In . SVG Version: 6.00 Build 0)  -->
<svg version="1.1" id="Слой_1" xmlns="http://www.w3.org/2000/svg" xmlns:xlink="http://www.w3.org/1999/xlink" x="0px" y="0px"
	 width="328px" height="293px" viewBox="0 0 328 293" style="enable-background:new 0 0 328 293;" xml:space="preserve">
<style type="text/css">
	.st0{fill:#0A2D4F;}
	.st1{fill:#FFFFFF;}
</style>
<g>
	<polygon class="st0" points="178.8,1.3 1.2,275.7 327.6,292.3 	"/>
	<g>
		<path class="st1" d="M174.7,142.8c15.3,0,30.6,0.1,45.9-0.1c4.9-0.1,9.4,4.3,9,9c-0.4,4.3,0,54.5-0.1,71.6c0,4.8-3.6,8.4-8.5,8.4
			c-8.9,0-17.8,0.1-26.7,0c-2.4,0-3.8,0.6-3.2,3.2c0.9,3.7,1.8,7.4,3.1,11c0.3,0.9,2.1,1.6,3.4,1.8c1.5,0.3,3.3-0.3,4.7,0.2
			c1.1,0.3,2.4,1.6,2.5,2.7c0.2,1.3-0.9,2.2-2.6,2.2c-18.4,0-36.9,0-55.3,0c-1.8,0-2.7-1-2.5-2.3c0.1-1,1.4-2,2.4-2.6
			c0.6-0.4,1.6-0.1,2.4-0.1c4.8,0,6.3-1.1,7.5-5.8c0.6-2.4,1-4.9,1.5-7.4c0.4-2.3-0.8-2.8-2.9-2.8c-8.7,0.1-17.5-0.2-26.2,0.1
			c-5.1,0.2-9.5-4.1-9.5-9.3c0.2-23.6,0.2-47.2,0-70.8c0-4.4,4.2-8.9,8.9-8.9C144,143,159.3,142.8,174.7,142.8z M174.4,205.7
			c8,0,16,0,23.9,0s16,0,23.9,0c1.3,0,2.3,0,2.3-1.8c0.1-8.4,0-47.6,0-51.8c0-3.5-1-4.4-4.4-4.4c-30.3,0-60.7,0-91,0
			c-3.6,0-4.5,1-4.5,4.6c0,16.9,0,33.7,0,50.6c0,2.2,0.7,2.8,2.9,2.8C143.2,205.7,158.8,205.7,174.4,205.7z M174.8,210.7
			c-15.8,0-31.6,0-47.4,0c-2,0-2.9,0.5-2.8,2.7c0.1,2.9,0,5.8,0,8.7c0,3.8,0.9,4.6,4.7,4.6c18.7,0,37.4,0,56.1,0
			c11.4,0,22.8,0,34.2,0c4.2,0,5-0.8,5-4.8c0-2.7-0.1-5.5,0-8.2c0.1-2.3-0.6-3-2.9-3C206.1,210.7,190.5,210.7,174.8,210.7z
			 M188.4,247.4c-0.8-4.8-1.6-9.3-2.2-13.8c-0.2-1.5-0.9-1.9-2.3-1.9c-6.2,0-12.4,0-18.7,0c-1.6,0-2.1,0.6-2.3,2.2
			c-0.6,4.5-1.4,8.9-2.2,13.6C170,247.4,179.5,247.4,188.4,247.4z"/>
		<path class="st1" d="M214.8,186.2c-2.8-0.2-5.4-0.3-8.1-0.5c-0.2,0-0.5,0-0.7,0c-1.7-0.1-4.2,0.4-4.8-0.4
			c-1.4-1.8-1.7-4.3-2.5-6.5c-0.5-1.6-0.9-3.1-1.5-4.7c-0.1-0.4-0.7-0.8-1-0.8c-0.4,0-0.9,0.5-1,0.9c-0.9,4.2-1.7,8.5-2.6,12.8
			c-0.5,2.7-1,5.5-1.7,8.2c-0.2,0.6-1.3,1.4-2,1.4c-0.8,0-2-0.6-2.2-1.2c-2.1-5.1-4-10.3-6.1-15.5c-0.3-0.6-0.9-1.1-1.4-1.6
			c-0.5,0.6-1,1.1-1.5,1.7c0,0.1,0,0.2,0,0.2c-0.2,6.9-2.4,6.1-7.3,6.1c-1.8,0-3.7,0.1-5.5,0c-1.6-0.1-3.2-0.6-3.1-2.4
			c0.1-1.7,1.2-2.6,3.2-2.5c1.9,0.2,3.8-0.1,5.7,0.1c1.9,0.1,2.3-0.8,2.5-2.4c0.7-4.2,1.5-8.4,2.6-12.5c0.3-1,1.6-2.2,2.5-2.4
			c1.3-0.2,2,0.9,2.5,2.4c1.8,5.3,4,10.5,6,15.7c0.1,0.3,0.4,0.4,1.1,1.1c0.6-2,1.3-3.7,1.7-5.5c1-4.6,1.9-9.1,2.7-13.7
			c0.3-1.6,0.3-3.3,0.9-4.8c0.3-0.9,1.5-2.2,2.3-2.1c0.9,0,2.3,1.1,2.6,2c1.8,5.7,3.4,11.4,5,17.2c0.4,1.3,0.6,2.7,1.2,4
			c0.3,0.5,1.2,1.1,1.8,1.1c1.7,0.2,3.5,0,5.2,0.1C214.7,181.3,215.3,182,214.8,186.2z"/>
		<path class="st1" d="M133.9,188.4c1.6,0,3,0,4.6,0c0,1.6,0,3,0,4.6c-1.5,0-3,0-4.6,0C133.9,191.6,133.9,190.2,133.9,188.4z"/>
		<path class="st1" d="M134,160.4c1.5,0,3,0,4.6,0c0,1.4,0,2.7,0,4.3c-1.4,0-2.9,0-4.6,0C134,163.4,134,162,134,160.4z"/>
		<path class="st1" d="M147.8,193.1c0-1.5,0-3,0-4.6c1.4,0,2.8,0,4.4,0c0,1.4,0,2.9,0,4.6C150.8,193.1,149.5,193.1,147.8,193.1z"/>
		<path class="st1" d="M152.3,174.4c0,1.7,0,3.1,0,4.7c-1.5,0-2.8,0-4.4,0c0-1.6,0-3.1,0-4.7C149.4,174.4,150.7,174.4,152.3,174.4z"
			/>
		<path class="st1" d="M152.3,160.5c0,1.5,0,2.8,0,4.3c-1.3,0-2.8,0-4.4,0c0-1.4,0-2.8,0-4.3C149.3,160.5,150.6,160.5,152.3,160.5z"
			/>
		<path class="st1" d="M134,174.4c1.5,0,3,0,4.6,0c0,1.4,0,2.7,0,4.3c-1.4,0-2.9,0-4.6,0C134,177.4,134,176,134,174.4z"/>
		<path class="st1" d="M172.5,220.7c0-1.5,0-3,0-4.6c1.4,0,2.8,0,4.4,0c0,1.4,0,2.9,0,4.6C175.5,220.7,174.2,220.7,172.5,220.7z"/>
	</g>
</g>
</svg>
