<?xml version="1.0" encoding="utf-8"?>
<!-- Generator: Adobe Illustrator 24.0.0, SVG Export Plug-In . SVG Version: 6.00 Build 0)  -->
<svg version="1.1" id="Слой_1" xmlns="http://www.w3.org/2000/svg" xmlns:xlink="http://www.w3.org/1999/xlink" x="0px" y="0px"
	 width="53px" height="62px" viewBox="0 0 53 62" style="enable-background:new 0 0 53 62;" xml:space="preserve">
<style type="text/css">
	.st0{fill:#FFFFFF;}
</style>
<g>
	<path class="st0" d="M27.7,31.9c0,0.7,0,1.4,0,2c0,1.5,0,3,0,4.6c0,0.6-0.5,1.3-1.1,1.6c-0.6,0.2-1.3,0.2-1.9-0.4
		c-0.4-0.4-0.5-0.8-0.5-1.3c0-2,0-4,0-5.9c0-0.1,0-0.3,0-0.5c-0.2,0-0.3,0-0.5,0c-2,0-4,0-6,0c-0.8,0-1.5-0.6-1.7-1.1
		c-0.3-0.9,0-1.6,0.6-2.1c0.4-0.3,0.8-0.4,1.2-0.4c2.1,0,4.2,0,6.4,0c0-0.2,0-0.4,0-0.6c0-2,0-4,0-6.1c0-0.8,0.8-1.6,1.6-1.6
		c1-0.1,1.9,0.9,1.9,1.9c-0.1,2,0,4,0,5.9c0,0.1,0,0.3,0,0.5c1.7,0,3.3,0,4.9,0c0.7,0,1.3,0,2,0.1c0.8,0.1,1.2,0.6,1.4,1.3
		c0.2,0.6-0.1,1.2-0.6,1.7c-0.4,0.3-0.8,0.5-1.3,0.5C32,31.9,29.9,31.9,27.7,31.9z"/>
	<path class="st0" d="M51.4,21.6c0-0.6,0-1.2,0-1.8c0-0.9,0-1.8,0-2.7c0-1.4-0.1-2.7-0.2-4.1c0-0.7-0.1-1.5-0.2-2.2
		c-0.1-0.7-0.9-1.4-1.6-1.4c-0.1,0-0.3,0-0.4,0c-0.9-0.1-1.8,0-2.6-0.1c-0.3,0-0.5,0-0.8-0.1C44.8,9.2,44,9.1,43.3,9
		c-0.2,0-0.5-0.1-0.7-0.1c-0.6-0.1-1.1-0.2-1.7-0.3c-0.9-0.2-1.8-0.3-2.6-0.6c-1.1-0.3-2.1-0.7-3.1-1.1c-0.5-0.2-1.1-0.5-1.6-0.7
		c0,0,0,0,0,0c-0.9-0.5-1.8-1-2.7-1.6c-0.5-0.3-1-0.7-1.4-1.1c-0.7-0.5-1.3-1.2-1.8-1.9c-0.2-0.2-0.4-0.3-0.6-0.5c0,0,0,0,0,0
		c0,0,0,0,0,0c-0.1,0-0.1-0.1-0.2-0.1c-0.1,0-0.1,0-0.2-0.1c0,0,0,0-0.1,0c-0.1,0-0.1,0-0.2,0c0,0-0.1,0-0.1,0c0,0-0.1,0-0.1,0
		c-0.1,0-0.1,0-0.2,0c0,0,0,0-0.1,0c-0.1,0-0.1,0-0.2,0.1C25.4,1,25.3,1,25.3,1c0,0,0,0,0,0c0,0,0,0,0,0c-0.2,0.1-0.4,0.3-0.6,0.5
		c-0.6,0.7-1.2,1.3-1.8,1.9c-0.5,0.4-0.9,0.7-1.4,1.1c-0.9,0.6-1.8,1.1-2.7,1.6c0,0,0,0,0,0c-0.5,0.3-1.1,0.5-1.6,0.7
		c-1,0.4-2.1,0.8-3.1,1.1c-0.9,0.3-1.8,0.4-2.6,0.6c-0.6,0.1-1.1,0.2-1.7,0.3C9.3,8.9,9.1,8.9,8.8,9C8.1,9.1,7.3,9.2,6.6,9.2
		c-0.3,0-0.5,0-0.8,0.1C4.9,9.3,4,9.3,3.1,9.4c-0.1,0-0.3,0-0.4,0c-0.7,0-1.5,0.7-1.6,1.4C1,11.6,0.9,12.3,0.9,13
		c-0.1,1.4-0.2,2.7-0.2,4.1c0,0.9,0,1.8,0,2.7c0,0.6,0,1.2,0,1.8c0,1.5,0.1,3,0.2,4.5c0,0.6,0.1,1.2,0.2,1.8c0,0.2,0,0.4,0,0.5
		c0,0.2,0,0.3,0.1,0.5c0.1,0.4,0.1,0.8,0.2,1.2c0,0,0,0,0,0.1c-0.1,0.4,0.1,0.8,0.2,1.2c0,0.1,0.1,0.3,0.1,0.4
		c0.1,0.5,0.2,1,0.3,1.5c0.2,1,0.4,2,0.7,3.1c0.1,0.3,0.1,0.6,0.2,0.8c0,0.1,0.1,0.2,0.1,0.3c0,0,0,0,0,0c0,0.1,0,0.2,0.1,0.2
		c0.1,0.2,0.1,0.4,0.2,0.6c0.3,1,0.6,1.9,1,2.8c0.2,0.5,0.4,1,0.6,1.5c0.1,0.2,0.1,0.4,0.2,0.6c0.4,0.9,0.8,1.8,1.3,2.7
		c0.6,1,1.1,2.1,1.8,3c0.1,0.1,0.1,0.2,0.2,0.3c0,0,0,0,0,0c0.6,0.7,1.3,1.4,2,2c1.2,1.1,2.4,2.1,3.7,3c0.2,0.1,0.4,0.3,0.5,0.4
		c0.7,0.5,1.5,1,2.3,1.5c0.4,0.3,0.9,0.6,1.3,0.9c0.3,0.2,0.7,0.4,1,0.6c0.7,0.4,1.4,0.8,2.1,1.2c1.3,0.7,2.6,1.4,3.9,2.1
		c0.2,0.1,0.3,0.1,0.5,0.2c0,0,0.1,0,0.1,0c0.1,0,0.2,0,0.3,0c0.1,0,0.2,0,0.3,0c0,0,0.1,0,0.1,0c0.2,0,0.3-0.1,0.5-0.2
		c1.3-0.7,2.6-1.4,3.9-2.1c0.7-0.4,1.4-0.8,2.1-1.2c0.3-0.2,0.7-0.4,1-0.6c0.5-0.3,0.9-0.6,1.3-0.9c0.8-0.5,1.6-1,2.3-1.5
		c0.2-0.1,0.4-0.3,0.5-0.4c1.3-0.9,2.6-1.9,3.7-3c0.7-0.6,1.4-1.3,2-2c0,0,0,0,0,0c0.1-0.1,0.2-0.2,0.2-0.3c0.7-0.9,1.3-1.9,1.8-3
		c0.5-0.9,0.9-1.8,1.3-2.7c0.1-0.2,0.1-0.4,0.2-0.6c0.2-0.5,0.4-1,0.6-1.5c0.3-0.9,0.7-1.9,1-2.8c0.1-0.2,0.1-0.4,0.2-0.6
		c0-0.1,0-0.2,0.1-0.2c0,0,0,0,0,0c0-0.1,0.1-0.2,0.1-0.3c0.1-0.3,0.1-0.6,0.2-0.8c0.3-1,0.5-2,0.7-3.1c0.1-0.5,0.2-1,0.3-1.5
		c0-0.1,0.1-0.3,0.1-0.4c0.1-0.4,0.2-0.8,0.2-1.2c0,0,0,0,0-0.1c0.1-0.4,0.1-0.8,0.2-1.2c0-0.2,0.1-0.3,0.1-0.5c0-0.2,0-0.4,0-0.5
		c0.1-0.6,0.1-1.2,0.2-1.8C51.3,24.6,51.4,23.1,51.4,21.6z M47.6,25.4c0,0.6-0.1,1.3-0.1,1.9c-0.1,0.8-0.2,1.6-0.3,2.4
		c-0.1,0.8-0.2,1.7-0.3,2.5c-0.2,0.9-0.4,1.9-0.6,2.8c-0.1,0.5-0.2,1.1-0.3,1.6c-0.2,0.7-0.5,1.4-0.7,2.2c-0.1,0.3-0.2,0.6-0.3,0.9
		c0,0,0,0.1,0,0.1c-0.3,0.9-0.7,1.8-1.1,2.7c-0.2,0.4-0.4,0.8-0.6,1.1c-0.4,0.8-0.8,1.7-1.3,2.4c-0.8,1.3-1.9,2.3-3.1,3.3
		c-1.1,0.9-2.1,1.7-3.2,2.5c-0.6,0.5-1.3,0.9-1.9,1.3c-0.7,0.4-1.3,0.8-2,1.3c-0.6,0.4-1.2,0.7-1.7,1.1c-0.2,0.1-0.5,0.3-0.7,0.4
		c-0.7,0.4-1.3,0.8-2,1.1c-0.1,0.1-0.3,0.2-0.4,0.2c-0.1,0-0.2,0.1-0.3,0.2c0,0-0.1,0.1-0.1,0.1c-0.1,0.1-0.2,0.1-0.3,0.1
		c-0.1,0-0.2,0-0.3-0.1c0,0-0.1-0.1-0.1-0.1c-0.1-0.1-0.2-0.1-0.3-0.2c-0.1-0.1-0.3-0.2-0.4-0.2c-0.7-0.4-1.3-0.8-2-1.1
		c-0.2-0.1-0.5-0.3-0.7-0.4c-0.6-0.4-1.2-0.7-1.7-1.1c-0.7-0.4-1.3-0.8-2-1.3c-0.6-0.4-1.3-0.8-1.9-1.3c-1.1-0.8-2.2-1.6-3.2-2.5
		c-1.2-1-2.2-2-3.1-3.3c-0.5-0.8-0.9-1.6-1.3-2.4c-0.2-0.4-0.4-0.8-0.6-1.1c-0.4-0.9-0.7-1.8-1.1-2.7c0,0,0-0.1,0-0.1
		C7.2,39.4,7.1,39,7,38.7c-0.2-0.7-0.5-1.4-0.7-2.2C6.2,36,6.1,35.5,6,35c-0.2-0.9-0.5-1.8-0.6-2.8c-0.2-0.8-0.2-1.7-0.3-2.5
		c-0.1-0.8-0.2-1.6-0.3-2.4c-0.1-0.6-0.1-1.3-0.1-1.9c0-0.4-0.1-0.8-0.1-1.2c-0.1-1.3-0.1-2.5-0.2-3.8c0-1.7,0-3.4,0.1-5.1
		c0-0.2,0-0.3,0-0.5c0-0.4,0-0.7,0.1-1.1c0-0.3,0.1-0.6,0.1-0.8c0.2,0,0.3-0.1,0.4-0.1c0.6,0,1.2-0.1,1.8-0.1
		c0.9-0.1,1.7-0.2,2.5-0.3c0.1,0,0.2,0,0.3,0c0.1,0,0.2,0,0.4,0c0.2,0,0.3,0,0.5-0.1c0.4,0,0.7-0.1,1.1-0.2c0.7-0.1,1.3-0.3,1.9-0.5
		c0.9-0.2,1.9-0.5,2.8-0.8c1-0.4,2-0.8,3-1.2c0.3-0.1,0.6-0.2,0.9-0.4c1-0.6,2-1,2.9-1.6c0,0,0,0,0,0c0.2-0.2,0.5-0.3,0.8-0.5
		c0.7-0.5,1.4-1.1,2-1.8C25.9,5.3,26,5.3,26,5.3c0.1,0,0.1,0.1,0.2,0.1c0.7,0.6,1.3,1.3,2,1.8c0.2,0.2,0.5,0.3,0.8,0.5c0,0,0,0,0,0
		C30,8.3,31,8.7,32,9.3c0.3,0.2,0.6,0.3,0.9,0.4c1,0.4,2,0.8,3,1.2c0.9,0.3,1.9,0.5,2.8,0.8c0.6,0.2,1.3,0.3,1.9,0.5
		c0.4,0.1,0.7,0.1,1.1,0.2c0.2,0,0.3,0.1,0.5,0.1c0.1,0,0.2,0,0.4,0c0.1,0,0.2,0,0.3,0c0.8,0.1,1.7,0.2,2.5,0.3
		c0.6,0.1,1.2,0.1,1.8,0.1c0.1,0,0.3,0.1,0.4,0.1c0,0.3,0.1,0.6,0.1,0.8c0,0.4,0,0.7,0.1,1.1c0,0.2,0,0.3,0,0.5
		c0,1.7,0.1,3.4,0.1,5.1c0,1.3-0.1,2.5-0.2,3.8C47.6,24.6,47.6,25,47.6,25.4z"/>
</g>
</svg>
