<?xml version="1.0" encoding="utf-8"?>
<!-- Generator: Adobe Illustrator 24.0.0, SVG Export Plug-In . SVG Version: 6.00 Build 0)  -->
<svg version="1.1" id="Слой_1" xmlns="http://www.w3.org/2000/svg" xmlns:xlink="http://www.w3.org/1999/xlink" x="0px" y="0px"
	 width="58px" height="62px" viewBox="0 0 58 62" style="enable-background:new 0 0 58 62;" xml:space="preserve">
<style type="text/css">
	.st0{fill:#FFFFFF;}
</style>
<g>
	<path class="st0" d="M10.6,8.4c0-0.4,0-0.7,0-1.1c0-1.1,0.6-1.7,1.7-1.7c1.2,0,2.3,0,3.5,0c0.3,0,0.4-0.1,0.5-0.4
		c0.3-0.7,0.6-1.3,1-1.9c0.7-1,1.7-1.7,2.8-2.1c0.5-0.2,1-0.3,1.6-0.3c0.6,0,1.3-0.1,1.9,0.1c1.7,0.4,3.1,1.3,4,2.8
		c0.3,0.5,0.5,1.1,0.7,1.6c0.1,0.2,0.2,0.3,0.4,0.3c1.2,0,2.4,0,3.6,0c0.6,0,1.1,0.2,1.4,0.7c0.1,0.2,0.2,0.5,0.2,0.8
		c0,0.4,0,0.8,0,1.3c0.1,0,0.3,0,0.4,0c1.5,0,2.9,0,4.4,0c1.3,0,2.4,0.6,3.3,1.4c0.6,0.6,1,1.2,1.3,2c0.2,0.6,0.3,1.3,0.3,1.9
		c0,5.6,0,11.2,0,16.8c0,0.1,0,0.3,0,0.3c1,0.2,1.9,0.4,2.8,0.6c1.3,0.4,2.5,0.9,3.7,1.6c1.4,0.8,2.6,1.9,3.6,3.1
		c0.7,0.9,1.4,1.8,1.9,2.8c0.4,0.8,0.7,1.5,1,2.3c0.3,0.9,0.4,1.7,0.5,2.6c0.1,1,0.2,2,0.1,3c0,0.7-0.2,1.5-0.3,2.2
		c-0.2,0.8-0.4,1.6-0.7,2.4c-0.1,0.3-0.3,0.6-0.4,0.9c-0.4,0.8-0.8,1.5-1.3,2.2c-0.7,0.9-1.4,1.8-2.3,2.6c-1.1,1-2.3,1.9-3.8,2.4
		c-0.7,0.3-1.4,0.6-2.1,0.8c-1.1,0.3-2.2,0.5-3.3,0.5c-0.8,0-1.6,0-2.4,0c-0.7-0.1-1.4-0.2-2.1-0.4c-0.5-0.1-1.1-0.3-1.6-0.5
		c-1.3-0.4-2.5-1.1-3.6-1.9c-0.5-0.4-1-0.5-1.6-0.5c-8.6,0-17.2,0-25.8,0c-1.3,0-2.4-0.6-3.3-1.4c-0.6-0.6-1-1.3-1.2-2
		C1,53.8,1,53.2,1,52.7c0-3.2,0-6.3,0-9.5c0-9.9,0-19.7,0-29.6c0-2.1,1-3.6,2.8-4.6c0.6-0.3,1.3-0.5,2-0.5c1.5,0,2.9,0,4.4,0
		C10.3,8.4,10.4,8.4,10.6,8.4z M27.6,41.2c-0.2,0-0.4,0-0.5,0c-6,0-12,0-18.1,0c-0.4,0-0.8-0.4-0.9-0.8c-0.2-0.7,0.4-1.2,1.2-1.2
		c6.3,0,12.5,0,18.8,0c0.1,0,0.2,0,0.3,0c0.1,0,0.3-0.1,0.3-0.2c0.5-0.9,1.1-1.8,1.8-2.6c0.3-0.3,0.5-0.6,0.8-0.9
		c-0.2,0-0.4,0-0.5,0c-7.1,0-14.2,0-21.3,0c-0.1,0-0.2,0-0.3,0c-0.5,0-1.1-0.6-1-1c0-0.4,0.3-1,1.1-1c6.6,0,13.1,0,19.7,0
		c1.5,0,3,0,4.5,0c0.1,0,0.3,0,0.4-0.1c1.5-1,3.1-1.7,4.8-2.1c0.7-0.2,1.4-0.2,2.1-0.4c0-0.1,0-0.2,0-0.2c0-5.8,0-11.6,0-17.4
		c0-0.3-0.1-0.7-0.3-1c-0.5-0.8-1.2-1.2-2.1-1.2c-1.3,0-2.6,0-4,0c-0.1,0-0.3,0-0.4,0c0,0.9,0,1.8,0,2.6c0,0.3-0.1,0.6-0.2,0.8
		c-0.3,0.6-0.9,0.7-1.5,0.7c-6.6,0-13.1,0-19.7,0c-0.2,0-0.4,0-0.6,0c-0.4,0-1.1-0.5-1.1-1c0-0.9-0.1-1.7-0.1-2.6c0-0.2,0-0.3,0-0.5
		c-0.1,0-0.1,0-0.2,0c-1.2,0-2.5,0-3.7,0c-0.5,0-1,0.1-1.5,0.2c-0.8,0.2-1.4,1.1-1.4,2.1c0,13,0,26,0,39c0,0.3,0.1,0.6,0.1,0.9
		C4.2,54.4,5,55,6,55c7.8,0,15.6,0,23.4,0c0.1,0,0.2,0,0.3,0c-0.4-0.6-0.7-1.1-1-1.6c-0.4-0.7-0.7-1.4-1-2.1
		c-0.2-0.6-0.3-1.2-0.5-1.8c-0.1-0.7-0.3-1.3-0.4-2c0-0.3-0.1-0.4-0.4-0.4c-4.4,0-8.7,0-13.1,0c-0.7,0-1.3-0.1-2-0.1
		c-0.8,0-1.5,0-2.3,0.1c-0.6,0-0.9-0.4-1-0.8C7.9,45.7,8.5,45,9.2,45c5.8,0,11.5,0,17.3,0c0.3,0,0.4-0.1,0.4-0.4
		c0-0.5,0.1-1,0.2-1.4C27.3,42.6,27.4,41.9,27.6,41.2z M29.7,47.3c0.1,2.4,1.4,5.5,4.2,8c2.8,2.5,6.1,3.4,9.8,3
		c5.3-0.6,10.9-5.3,10.7-12.8c-0.1-3.5-1.7-6.5-4.4-8.8c-2.8-2.3-6.1-3.2-9.7-2.7C35,34.6,29.7,39.3,29.7,47.3z M13.4,12.5
		c5.9,0,11.7,0,17.5,0c0-1.3,0-2.6,0-3.9c-0.2,0-0.4,0-0.5,0c-1.1,0-2.2,0-3.2,0c-1,0-1.4-0.6-1.5-1.4c0-0.5-0.1-0.9-0.3-1.4
		c-0.4-1-1.2-1.6-2.2-1.9C22,3.5,20.9,3.7,20,4.5c-0.7,0.6-1.2,1.4-1.2,2.4c0,1-0.6,1.6-1.6,1.6c-1.1,0-2.3,0-3.4,0
		c-0.1,0-0.3,0-0.3,0.2C13.4,10,13.4,11.2,13.4,12.5z"/>
	<path class="st0" d="M29.9,24.2c0.5,0,0.9,0,1.3,0c0.6,0,1,0.2,1.4,0.7c0.3,0.4,0.3,0.9,0.1,1.3c-0.2,0.4-0.5,0.8-1,0.8
		c-0.5,0-1,0.1-1.5,0.1c-0.3,0-0.4,0.1-0.3,0.4c0,0.4,0,0.8,0,1.1c0,0.7-0.4,1.2-1.2,1.4c-0.6,0.1-1.2-0.3-1.5-0.9
		c-0.1-0.2-0.1-0.4-0.1-0.7c0-0.4,0-0.8,0-1.2c0,0,0,0,0-0.1c-0.4,0-0.8,0-1.2,0c-0.4,0-0.8,0-1.1-0.3c-0.4-0.4-0.6-0.8-0.5-1.4
		c0.1-0.5,0.4-0.9,0.9-1c0.4-0.1,0.7-0.1,1.1-0.1c0.3,0,0.5,0,0.8,0c0-0.5,0-0.9,0-1.4c-0.1-0.8,0.8-1.6,1.6-1.5
		c0.6,0.1,1.3,0.8,1.3,1.3C29.9,23.1,29.9,23.7,29.9,24.2z"/>
	<path class="st0" d="M13.2,29.6c-1.3,0-2.7,0-4,0c-0.7,0-1.3-0.6-1.1-1.3c0.1-0.4,0.5-0.8,1.2-0.8c1.9,0,3.9,0,5.8,0
		c0.7,0,1.4,0,2.1,0c0.5,0,0.9,0.3,1.1,0.7c0.3,0.7-0.3,1.3-1,1.3C15.9,29.6,14.5,29.6,13.2,29.6z"/>
	<path class="st0" d="M13.2,21.7c1.3,0,2.6,0,3.9,0c0.6,0,1,0.3,1.2,0.9c0.1,0.5-0.3,1.1-0.8,1.1c-2.8,0-5.7,0-8.5,0
		c-0.5,0-0.9-0.4-0.9-0.9c0-0.4,0.3-0.9,0.7-1c0.2,0,0.4-0.1,0.5-0.1C10.6,21.7,11.9,21.7,13.2,21.7C13.2,21.7,13.2,21.7,13.2,21.7z
		"/>
	<path class="st0" d="M41.6,47.8c0.9-1.2,1.8-2.5,2.6-3.7c0.5-0.7,0.9-1.4,1.4-2c0.3-0.4,0.5-0.9,1-1.1c0.6-0.4,1.6,0,1.9,0.7
		c0.3,0.6,0.2,1.1-0.2,1.5c-0.9,1.3-1.8,2.6-2.7,3.9c-0.7,1-1.4,2-2.2,3.1c-0.2,0.3-0.4,0.6-0.7,0.9c-0.5,0.5-1.3,0.4-1.8,0
		c-1.5-1.3-3-2.5-4.5-3.8c-0.4-0.3-0.7-0.7-1-1.1c-0.6-0.8,0.3-2.1,1.2-2.1c0.7,0,1.1,0.4,1.5,0.8c0.8,0.7,1.6,1.4,2.5,2.1
		C41,47.3,41.3,47.5,41.6,47.8z"/>
	<path class="st0" d="M22.2,8c-0.9,0.1-1.5-0.8-1.5-1.5c0-0.8,0.6-1.5,1.5-1.5c0.9,0,1.5,0.6,1.5,1.5C23.7,7.2,23.1,8.1,22.2,8z"/>
</g>
</svg>
