<?xml version="1.0" encoding="utf-8"?>
<!-- Generator: Adobe Illustrator 24.0.0, SVG Export Plug-In . SVG Version: 6.00 Build 0)  -->
<svg version="1.1" id="Слой_1" xmlns="http://www.w3.org/2000/svg" xmlns:xlink="http://www.w3.org/1999/xlink" x="0px" y="0px"
	 width="62px" height="62px" viewBox="0 0 62 62" style="enable-background:new 0 0 62 62;" xml:space="preserve">
<style type="text/css">
	.st0{fill:#FFFFFF;}
</style>
<g>
	<path class="st0" d="M33.9,27.1c0.6-1,1.2-1.9,1.8-2.9c0.8-1.3,1.5-2.6,2.3-3.9c1.1-1.7,2.2-3.5,3.3-5.2c-0.2-0.1-0.3-0.2-0.4-0.3
		c-1.6-0.9-3.3-1.5-5-1.9c-1.5-0.4-3-0.5-4.5-0.5c-1.4,0-2.8,0.1-4.2,0.5c-1,0.3-2,0.6-3,1c-0.7,0.3-1.4,0.7-2.1,1
		c-0.1,0-0.2,0.1-0.2,0.1L33.9,27.1z"/>
	<path class="st0" d="M31,61.2C14.5,61.3,0.9,47.7,1.1,31C1.2,14.6,14.6,1.2,31.4,1.3C48,1.4,61,14.5,61.1,31.2
		C61.2,47.5,48.3,61.1,31,61.2z M51.4,47.9c9-11.3,7.1-26-1.4-35c-7.3-7.8-23.1-12.2-35.6-2C26.7,23.2,39,35.5,51.4,47.9z
		 M11.5,13.8C3,22.7,1,41.1,15.2,52.2c9.8,7.7,24.9,6.8,33.1-1.5C36.1,38.4,23.9,26.2,11.5,13.8z"/>
	<path class="st0" d="M48.1,41.3C50,38,51,34.2,50.7,30.6c-0.2,0-0.4,0-0.6,0c-0.7,0-1.4,0.1-2.2,0.1c-3.4,0.1-6.8,0.1-10.2,0.2
		L48.1,41.3z"/>
	<path class="st0" d="M27,32.6l-1.8-1.8c-1.6,0-3.1-0.1-4.7-0.1c-2.1,0-4.2-0.1-6.4-0.1c-0.6,0-1.3-0.1-2-0.1c0.1,1.6,0,3,0.3,4.5
		c0.3,1.6,0.8,3.2,1.4,4.7c1,2.2,2.4,4.2,4.2,5.9c1.1,1,2.3,1.8,3.5,2.7c0.3,0.2,0.4,0.1,0.6-0.2c0.5-1.1,1.1-2.2,1.7-3.3
		c0.8-1.5,1.7-3,2.5-4.5c0.8-1.5,1.7-3.1,2.5-4.7c-0.1-0.1-0.3-0.2-0.4-0.4C27.8,34.5,27.2,33.7,27,32.6z"/>
</g>
</svg>
