<?xml version="1.0" encoding="utf-8"?>
<!-- Generator: Adobe Illustrator 24.0.0, SVG Export Plug-In . SVG Version: 6.00 Build 0)  -->
<svg version="1.1" id="Слой_1" xmlns="http://www.w3.org/2000/svg" xmlns:xlink="http://www.w3.org/1999/xlink" x="0px" y="0px"
	 width="62px" height="63px" viewBox="0 0 62 63" style="enable-background:new 0 0 62 63;" xml:space="preserve">
<style type="text/css">
	.st0{fill:#FFFFFF;stroke:#FFFFFF;stroke-miterlimit:10;}
</style>
<g>
	<path class="st0" d="M60.3,30.8C60.2,32,60.2,33,60.1,34c-0.1,0.8-0.2,1.7-0.4,2.5c-0.1,0.7-0.3,1.5-0.5,2.2
		c-0.2,0.8-0.4,1.5-0.7,2.3c-0.4,0.9-0.8,1.9-1.2,2.8c-0.4,0.8-0.8,1.7-1.3,2.5c-0.4,0.6-0.8,1.2-1.2,1.8c-1,1.5-2.2,2.9-3.5,4.1
		c-1.1,1-2.2,1.9-3.4,2.8c-1,0.7-2.1,1.3-3.1,1.9c-0.9,0.5-1.9,1-2.9,1.4c-0.9,0.4-1.8,0.6-2.7,0.9c-0.7,0.2-1.5,0.4-2.2,0.6
		c-0.8,0.2-1.6,0.3-2.4,0.4c-1.5,0.2-3,0.3-4.5,0.2c-1.1-0.1-2.2-0.2-3.3-0.3c-0.6-0.1-1.3-0.1-1.9-0.3c-0.9-0.2-1.8-0.5-2.6-0.7
		c-0.5-0.1-1-0.3-1.5-0.5c-0.3-0.1-0.6-0.2-0.9-0.3c-0.3-0.1-0.5-0.1-0.7,0c-0.5,0.2-1.1,0.4-1.6,0.6c-0.5,0.2-0.9,0.3-1.4,0.5
		c-0.8,0.3-1.5,0.5-2.3,0.8c-0.7,0.3-1.4,0.5-2.2,0.8c-0.8,0.3-1.6,0.6-2.5,0.7c-1.2,0.1-2.2-0.3-2.9-1.3c-0.7-0.9-0.8-1.9-0.5-2.9
		c0.2-0.6,0.5-1.2,0.8-1.7c0.5-0.8,0.7-1.6,0.9-2.5c0.1-0.9,0.4-1.8,0.5-2.6C7.9,50.2,8,49.8,8,49.5c0-0.1-0.1-0.2-0.1-0.3
		c-0.7-1.1-1.6-2.1-2.2-3.2c-0.7-1.2-1.2-2.4-1.8-3.6c-0.4-0.8-0.7-1.7-1-2.5c-0.3-1-0.5-1.9-0.7-2.9c-0.2-0.7-0.3-1.3-0.4-2
		c-0.1-0.5-0.1-0.9-0.2-1.4c0-1.2-0.1-2.3-0.1-3.5c0-1.3,0.1-2.6,0.4-3.9c0.2-0.8,0.3-1.7,0.5-2.5c0.2-0.9,0.5-1.8,0.8-2.6
		c0.6-1.5,1.2-3,2-4.3c0.7-1.1,1.4-2.3,2.2-3.4c1.1-1.5,2.4-2.9,3.9-4.1c0.7-0.6,1.4-1.2,2.1-1.8c1.1-0.8,2.3-1.5,3.5-2.2
		c0.8-0.5,1.6-0.8,2.4-1.2c0.9-0.4,1.7-0.6,2.6-0.9c0.6-0.2,1.2-0.4,1.9-0.6c1-0.2,1.9-0.3,2.9-0.5c1.3-0.3,2.7-0.3,4-0.3
		c1.3,0,2.7,0.1,4,0.3c0.9,0.2,1.9,0.3,2.9,0.5c1.1,0.3,2.1,0.6,3.1,1c0.8,0.3,1.6,0.6,2.3,0.9c1,0.5,2,1,2.9,1.6
		c0.9,0.5,1.7,1.1,2.6,1.7c1.6,1.2,3.1,2.6,4.4,4.1c0.7,0.8,1.4,1.7,2,2.5c0.4,0.6,0.8,1.2,1.2,1.9c0.5,0.9,1,1.7,1.4,2.6
		c0.3,0.6,0.5,1.2,0.7,1.8c0.2,0.5,0.4,0.9,0.5,1.4c0.2,0.6,0.4,1.3,0.5,1.9c0.1,0.5,0.3,1,0.3,1.5c0.1,0.7,0.2,1.5,0.3,2.2
		C60.1,28.8,60.2,29.9,60.3,30.8z M31,57.8c1-0.1,2-0.2,3.1-0.3c0.9-0.1,1.9-0.2,2.8-0.4c0.9-0.2,1.8-0.5,2.6-0.8
		c1-0.3,1.9-0.7,2.9-1.2c1.4-0.6,2.7-1.4,3.9-2.3c1-0.8,2-1.6,2.9-2.4c1.1-1,2-2.1,2.9-3.2c0.5-0.7,1.1-1.4,1.5-2.2
		c0.4-0.7,0.8-1.5,1.1-2.2c0.4-0.9,0.8-1.7,1.2-2.6c0.3-0.9,0.6-1.8,0.8-2.7c0.1-0.3,0.2-0.7,0.2-1c0.1-0.5,0.2-1.1,0.2-1.6
		c0.1-0.8,0.2-1.6,0.3-2.5c0.1-2.1,0-4.1-0.4-6.2c-0.2-0.8-0.3-1.6-0.5-2.4c-0.3-0.9-0.6-1.8-1-2.7c-0.5-1.3-1.1-2.5-1.8-3.7
		c-0.8-1.3-1.6-2.6-2.7-3.7c-1-1.1-2-2.1-3.1-3c-0.9-0.8-1.8-1.4-2.8-2.1c-0.7-0.5-1.6-0.9-2.4-1.3c-0.8-0.4-1.7-0.8-2.5-1.1
		c-0.7-0.3-1.4-0.6-2.1-0.8c-1-0.3-2.1-0.5-3.1-0.7c-1.3-0.2-2.5-0.3-3.8-0.4c-0.8-0.1-1.5,0-2.3,0.1c-0.6,0-1.2,0.1-1.8,0.1
		c-0.6,0.1-1.2,0.2-1.8,0.3c-0.8,0.2-1.5,0.3-2.2,0.5c-0.9,0.3-1.8,0.6-2.7,1c-0.8,0.3-1.6,0.7-2.4,1.2c-0.9,0.5-1.8,1-2.7,1.7
		c-1,0.8-2.1,1.6-3,2.5c-1,1-2,2.1-2.9,3.2c-0.7,0.8-1.2,1.8-1.8,2.7C7.4,18.4,7,19.2,6.6,20c-0.4,1-0.8,2.1-1.2,3.1
		c-0.2,0.5-0.3,1.1-0.5,1.6c-0.2,0.8-0.3,1.7-0.4,2.5c-0.1,0.8-0.2,1.7-0.3,2.5c-0.1,2.1,0,4.1,0.4,6.1c0.2,0.8,0.3,1.6,0.5,2.4
		c0.2,0.6,0.4,1.2,0.6,1.8c0.3,0.9,0.7,1.8,1.1,2.6c0.4,0.9,0.9,1.7,1.5,2.6c0.6,1,1.4,1.9,2,2.8c0.2,0.3,0.6,0.6,0.5,1.1
		c-0.2,0.8-0.3,1.5-0.5,2.3c-0.1,0.6-0.3,1.2-0.4,1.9c-0.2,0.7-0.2,1.5-0.5,2.2c-0.3,0.8-0.8,1.5-1.2,2.2c-0.2,0.3-0.2,0.6,0,0.9
		c0.2,0.3,0.5,0.2,0.8,0.2c0.1,0,0.3-0.1,0.4-0.1c0.5-0.2,1-0.4,1.5-0.5c0.5-0.2,1-0.3,1.5-0.5c0.5-0.2,1.1-0.4,1.6-0.6
		c0.7-0.2,1.4-0.4,2.1-0.7c0.9-0.3,1.9-0.7,2.8-1c0.4-0.1,0.7-0.3,1.1,0c0.3,0.2,0.6,0.3,0.9,0.4c1.1,0.4,2.3,0.8,3.5,1.1
		c0.9,0.3,1.8,0.5,2.8,0.6C28.4,57.6,29.6,57.7,31,57.8z"/>
	<path class="st0" d="M33.4,33.7c0,2.6,0,5.2,0,7.8c0,1.2,0.5,1.6,1.6,1.9c0.5,0.1,1,0.3,1.5,0.4c0.3,0.1,0.5,0.3,0.6,0.6
		c0.3,0.7-0.2,1.4-0.9,1.5c-1.3,0.2-2.6-0.1-3.9-0.2c-0.7-0.1-1.3-0.1-2,0c-0.7,0-1.4,0.1-2.1,0.2c-0.7,0.1-1.4,0.2-2,0.2
		c-0.7,0-1.5-0.6-1.5-1.4c-0.1-0.5,0.4-1,1-1.1c0.5-0.1,1-0.2,1.5-0.4c0.7-0.2,1.1-0.7,1.2-1.5c0.1-0.9,0.1-1.8,0.1-2.7
		c0-3.3,0-6.6,0-9.8c0-1-0.5-1.6-1.5-1.9c-0.5-0.1-1-0.3-1.5-0.4c-0.4-0.1-0.8-0.6-0.8-1c0-1,0.5-1.5,1.5-1.5c0.7,0,1.5,0.3,2.2,0.4
		c0.6,0.1,1.2,0.1,1.8,0c0.6,0,1.3-0.2,1.9-0.3c1-0.1,1.4,0.5,1.4,1.4C33.4,28.4,33.4,31.1,33.4,33.7z"/>
	<path class="st0" d="M27.4,17.2c0.1-1.3,0.7-2.1,1.7-2.8c0.7-0.5,1.5-0.6,2.3-0.4c1.4,0.2,2.3,1.1,2.7,2.3c0.4,1.2,0.2,2.4-0.9,3.4
		c-0.6,0.5-1.3,0.6-2,0.8c-1.5,0.3-2.9-0.8-3.4-1.9C27.6,18.1,27.5,17.6,27.4,17.2z"/>
</g>
</svg>
