<?xml version="1.0" encoding="utf-8"?>
<!-- Generator: Adobe Illustrator 24.0.0, SVG Export Plug-In . SVG Version: 6.00 Build 0)  -->
<svg version="1.1" id="Слой_1" xmlns="http://www.w3.org/2000/svg" xmlns:xlink="http://www.w3.org/1999/xlink" x="0px" y="0px"
	 width="103px" height="103px" viewBox="0 0 103 103" style="enable-background:new 0 0 103 103;" xml:space="preserve">
<style type="text/css">
	.st0{fill:#FFFFFF;}
</style>
<g>
	<path class="st0" d="M102.2,51.5c0.1,27.9-22.5,50.7-50.6,50.8C24.2,102.4-0.7,79.8,0.9,48.6C2.1,24,22.6,0.9,51.6,0.9
		C79.7,0.9,102.2,23.9,102.2,51.5z M51.4,97.6c26.5,0.6,46.1-21.4,46.4-45.1c0.3-26.5-20.3-45.7-43-47C24.5,3.9,5.6,27.7,5.2,50.8
		C4.9,76.4,25.6,98.1,51.4,97.6z"/>
	<path class="st0" d="M91.8,51.7c-0.5,3.6-0.6,7.4-1.6,10.8c-1.9,6.7-5.4,12.6-10.4,17.6c-4.3,4.2-9.3,7.2-14.7,9.5
		c-2.2,0.9-4.8,1.2-7.2,1.6c-2.4,0.4-4.8,0.7-7.2,0.7c-5.5-0.1-10.8-1.4-15.9-3.8c-5.3-2.5-9.8-5.8-13.6-10.2
		c-3.3-3.9-5.7-8.3-7.5-13.2c-2.2-6-2.3-12-1.9-18.1c0.3-4.5,1.9-8.8,4-13c2.9-5.8,7-10.6,12.2-14.4c3.5-2.6,7.4-4.6,11.6-5.9
		c4.6-1.4,9.2-2.4,13.9-1.9c3.3,0.3,6.7,0.9,9.8,1.9c3.5,1.2,6.9,2.9,10.2,4.6c1.5,0.7,1.7,2.1,0.9,3.2c-0.9,1.2-2.5,1.5-3.7,0.6
		c-2.8-2.1-5.9-3.5-9.3-4.2c-2.6-0.6-5.2-1.5-7.9-1.6c-2.8-0.2-5.7,0.1-8.5,0.7C42,17.2,39,18.4,36,19.6c-4.2,1.7-7.6,4.6-10.7,7.8
		c-3.1,3.2-5.5,7-7,11.1c-2.5,6.7-3.2,13.7-1.6,20.8c1.7,7,4.9,13.1,10.1,18c4.3,4,9,7.3,14.9,8.5c3.3,0.7,6.7,1.8,10,1.6
		c5.2-0.2,10.3-1.2,15.2-3.7c5.1-2.6,9.4-5.9,12.9-10.4c3.6-4.7,5.8-10,6.8-15.8c0.8-4.6,0.6-9.2-0.4-13.8c-1-4.3-2.7-8.2-5-11.9
		c-0.7-1.2-0.3-2.5,0.7-3.1c0.9-0.5,2.2-0.7,2.9,0.6c1.5,3,3,6,4.4,9.1c1.9,4.2,2.4,8.6,2.1,13.2C91.5,51.6,91.7,51.6,91.8,51.7z"/>
	<path class="st0" d="M62.3,62c0,4.2,0,8.1,0,12.1c0,1.8-0.9,2.9-2.8,3c-5.3,0.1-10.7,0.1-16,0c-1.9,0-2.8-1.2-2.8-3.1
		c0-3.9,0-7.9,0-12c-4.1,0-8,0-12,0c-2,0-2.8-0.7-2.8-2.7c0-5.1,0-10.3,0-15.4c0-2,0.7-2.7,2.6-2.7c3.9,0,7.9,0,12.1,0
		c0-1.3,0-2.5,0-3.8c0-2.9,0-5.7,0-8.6c0-1.6,0.9-2.4,2.2-2.4c5.7-0.1,11.4-0.1,17.1,0c1.5,0,2.3,0.9,2.3,2.5c0,4,0,8,0,12.3
		c1.1,0,2.1,0,3,0c3.1,0,6.2,0,9.3,0c1.6,0,2.3,0.9,2.3,2.3c0.1,5.4,0.1,10.9,0,16.3c0,1.3-0.7,2.3-2.3,2.3C70.6,62,66.6,62,62.3,62
		z M30.7,57.7c4,0,7.8,0,11.6,0c2.1,0,2.7,0.6,2.7,2.8c0,3.5,0.1,6.9,0,10.4c0,1.3,0.3,1.8,1.7,1.7c3.2-0.1,6.5,0,9.7-0.1
		c0.5,0,1-0.1,1.6-0.2c0-3.3,0.2-6.5,0-9.7c-0.4-5.4,0.4-5,5.1-5c3.1,0,6.2,0,9.3,0c0-4.2,0-8.1,0-12.2c-3.9,0-7.7,0-11.5,0
		c-2.1,0-2.8-0.6-2.8-2.7c0-2.5,0-5,0-7.5c0-1.5,0-2.9,0-4.4c-4.4,0-8.6,0-12.9,0c0,4.1,0,8,0,11.9c0,2.1-0.6,2.7-2.8,2.7
		c-3.8,0-7.6,0-11.5,0C30.7,49.6,30.7,53.5,30.7,57.7z"/>
</g>
</svg>
